<?xml version="1.0" encoding="UTF-8"?>
<svg id="uuid-fe6e6892-c085-4746-a751-8f4a791bc224" data-name="Layer 2" xmlns="http://www.w3.org/2000/svg" width="30.5mm" height="15.9mm" viewBox="0 0 86.5 45.1">
  <defs>
    <style>
      .uuid-b4013ce2-8259-4b71-ae91-90e2a76441a3 {
        fill: #fff;
      }

      .uuid-59f93675-fbed-46ec-b2c1-cf484e5f292d {
        fill: #ce0f2d;
      }

      .uuid-74ef51eb-c7e1-45b4-8d6f-c518caaf5201 {
        fill: #006073;
      }

      .uuid-bda5ee80-5138-43e6-9c0b-75765a148bb0 {
        fill: none;
        stroke: #006073;
        stroke-width: .2px;
      }
    </style>
  </defs>
  <g id="uuid-3827a7be-fc66-455a-bc7a-05750746e87a" data-name="Capa 1">
    <g>
      <path class="uuid-59f93675-fbed-46ec-b2c1-cf484e5f292d" d="M22,6.6c-2.7,2-5.4,4.3-8.1,6.9C5.7,21.3,0,30,0,34.5c0,1,.3,1.7,.8,2.3,.5,.5,1.3,.8,2.4,.8,2.7,0,6.9-1.8,11.9-5.2h0L22.2,6.6v0Z"/>
      <path class="uuid-74ef51eb-c7e1-45b4-8d6f-c518caaf5201" d="M15,32.3c1.4-3.6,2.9-6.8,3.8-9.1,1.5-4,4.2-4.9,6.4-2.1-1.1-4.6-2.1-9.9-3.1-14.5C29.4,1.2,35.8-1.3,38.1,.9c3,2.9-2.9,13.4-13.1,23.2-3.4,3.2-6.8,6-10,8.2"/>
      <path class="uuid-bda5ee80-5138-43e6-9c0b-75765a148bb0" d="M15,32.3c1.4-3.6,2.9-6.8,3.8-9.1,1.5-4,4.2-4.9,6.4-2.1-1.1-4.6-2.1-9.9-3.1-14.5C29.4,1.2,35.8-1.3,38.1,.9c3,2.9-2.9,13.4-13.1,23.2-3.4,3.2-6.8,6-10,8.2Z"/>
      <path class="uuid-b4013ce2-8259-4b71-ae91-90e2a76441a3" d="M54.2,21.5c1.3,0,2.3,.9,2.3,2.1s-1,2-2.3,2-2.3-.9-2.3-2,1-2.1,2.3-2.1"/>
      <rect class="uuid-b4013ce2-8259-4b71-ae91-90e2a76441a3" x="52.1" y="26.8" width="4.2" height="7.9"/>
      <path class="uuid-b4013ce2-8259-4b71-ae91-90e2a76441a3" d="M43.2,24.7h1.5v-3.1h4.1v3.1h1.9v2.2h-1.9v3.8c0,.3,0,.7,0,.8,.1,.1,.3,.3,.6,.3s.7,0,1.3,0v2.8h-.9c-.6,0-1.1,0-1.3,0-.8,0-1.5,0-1.9-.1-.5,0-.9-.2-1.1-.4-.2-.2-.5-.6-.6-1,0-.5-.1-1.1-.1-1.9v-4.4h-1.5v-2.2Z"/>
      <path class="uuid-b4013ce2-8259-4b71-ae91-90e2a76441a3" d="M37.3,32.6c-.5,0-1.1-.2-1.4-.6-.4-.3-.6-.9-.6-1.5h7.9c0-.7,0-1.5-.3-2.2-.2-.7-.6-1.4-1-2-.4-.6-1.1-1.1-1.8-1.5-.8-.3-1.8-.5-2.9-.5s-1.8,.2-2.6,.4c-.7,.3-1.4,.8-1.9,1.3-.5,.4-.8,1.1-1.1,1.8-.2,.6-.4,1.3-.4,2,0,1,.3,1.9,.8,2.8,.5,.8,1.2,1.5,2.1,1.8,.8,.4,1.9,.6,3.1,.6s3-.3,4-1c.9-.7,1.5-1.4,1.7-2.4h-3.9c-.3,.6-.9,.9-1.6,.9m-1.5-5.5c.3-.3,.8-.5,1.4-.5s.9,.2,1.3,.5c.4,.4,.6,.9,.6,1.3h-3.8c0-.6,.2-1,.6-1.4"/>
      <path class="uuid-b4013ce2-8259-4b71-ae91-90e2a76441a3" d="M78.7,34.7c.9-3.6,2-8.5,2.4-11.5v-.4c0-.2,0-.3-.1-.3s-.4,0-.8,0h-.5v-.3c1.1,0,2-.4,2.8-.7h.1l-2,9.5h0c.7-1.1,1.6-2,2.4-2.8,.8-.8,1.6-1.2,2.2-1.2s.6,0,.9,0l-.3,1.1s-.1,0-.2,0-.2,0-.3,0h-.4c0,0-.4,0-.5,.1-.2,0-.6,.3-.9,.5-.3,.2-.8,.6-1.2,1,.4,1.3,.9,2.5,1.4,3.4,.2,.5,.5,.8,.8,.8s.2,0,.3,0c.1,0,.4-.1,.5-.2,.1,0,.3-.2,.4-.2l.2,.3c0,0-.4,.2-1,.7-.6,.4-1,.6-1.1,.6s-.2,0-.4-.2c-.1-.2-.3-.4-.4-.6-.7-1.9-1.3-3.1-1.4-3.7-.3,.4-.6,.9-.8,1.2-.1,.4-.3,.9-.4,1.4,0,.5-.1,1-.3,1.6l-1.1,.3v-.2Z"/>
      <path class="uuid-b4013ce2-8259-4b71-ae91-90e2a76441a3" d="M77.9,28.2c0-.1-.1-.3-.4-.4-.2,0-.6-.3-.9-.3-.9,0-1.7,.4-2.1,1.3-.5,.9-.8,1.9-.8,3.1s0,.1,0,.1c0,1.2,.6,1.8,1.5,1.8s1.5-.4,2.7-1.2l.2,.4c-.4,.3-.8,.6-1.1,.9-.3,.2-.7,.4-1.1,.6-.4,.2-.9,.2-1.3,.2-1.4,0-2.1-.9-2.1-2.5s.1-1.6,.4-2.3c.3-.8,.6-1.4,1-1.8,.2-.2,.7-.5,1.2-.8,.6-.3,1-.5,1.1-.6,.2,0,.5-.1,.8-.1,.5,0,1.1,.1,1.7,.4,0,.2-.2,.5-.2,.8,0,.4-.1,.9-.2,1.2h-.4v-1Z"/>
      <path class="uuid-b4013ce2-8259-4b71-ae91-90e2a76441a3" d="M71.6,33c-.3,.3-.6,.5-.8,.6,0,0-.3,0-.4,0-.1,0-.3,0-.3-.3,0,0,0,0,0-.2s0-.3,0-.4l1.4-5.7v-.2l-.7,.3c-.5-.2-1-.3-1.6-.3s-.8,.1-1.3,.4c-.2,0-.5,.2-.8,.5-.3,.2-.5,.3-.6,.4-.5,.7-.9,1.5-1.2,2.6-.3,1.1-.6,2-.6,2.7h0c0,1,.2,1.4,.6,1.4s1.1-.4,1.8-1.1c.7-.6,1.4-1.4,2-2.3h0c0,.2-.1,.6-.3,1,0,.5-.1,.9-.2,1.2,0,.3,0,.6,0,.7s0,.3,0,.4c0,0,0,.1,.1,.1h.2c0,0,.5-.1,1-.4,.4-.2,1-.7,1.5-1.1l-.2-.3Zm-3.6-.3c-.7,.6-1.1,.9-1.5,.9s-.4-.2-.4-.6,.2-1.5,.6-2.9h0c.2-.7,.5-1.3,.7-1.7,.2-.4,.5-.6,.7-.7,.1,0,.5-.2,.9-.2s.8,.2,1.4,.4c0,1.1-.4,2-.8,2.7-.4,.8-.9,1.5-1.5,2.1"/>
      <path class="uuid-b4013ce2-8259-4b71-ae91-90e2a76441a3" d="M64.7,27.2c-.2-.3-.4-.4-.7-.4-.7,0-1.4,.4-2.2,1-.8,.6-1.4,1.3-1.8,2h0s0-.3,.2-.7c0-.3,.2-.8,.2-1.1,0-.3,0-.6,0-.7,0-.3-.2-.5-.4-.5s-.4,0-.7,.2c-.3,.1-.7,.4-1,.7-.3,.2-.8,.5-1,.7v.3c.2,0,.3,0,.6-.3,.2-.1,.5-.3,.6-.4,0,0,.1,0,.2,0,.2,0,.3,.1,.3,.3s0,.5,0,.6c-.2,1.6-.5,3.5-.9,5.5-.4,2-.8,3.6-1.1,4.7h.2c.6,0,1.1-.2,1.2-.2l.7-4.4c.7,.2,1,.3,1.1,.3,.8,0,1.9-.6,3-1.6,.3-.3,.7-.8,.9-1.2,.2-.5,.5-1.1,.7-1.7,.1-.6,.2-1.2,.2-1.8s-.2-1-.3-1.3m-1.7,4.8c-.3,.7-.8,1.3-1.1,1.6-.2,.3-.7,.4-1.2,.4s-1-.2-1.4-.4h0c0-.2,.1-.6,.3-1.1,0-.5,.1-.9,.2-1.1,0-.2,0-.5,.1-.7,.4-.9,1-1.7,1.6-2.2,.6-.5,1.2-.8,1.7-.8s.7,.3,.7,1.1-.3,2-.8,3.2"/>
      <polygon class="uuid-b4013ce2-8259-4b71-ae91-90e2a76441a3" points="15 41.6 15.6 41.6 16.6 44.3 16.6 44.3 17.5 41.6 18 41.6 16.8 45 16.3 45 15 41.6"/>
      <path class="uuid-b4013ce2-8259-4b71-ae91-90e2a76441a3" d="M21.8,44.5h0c0,.2-.4,.5-1,.5s-.9-.3-.9-1,1-1.1,1.6-1.1,.2,0,.3,0c0-.2,0-.5,0-.7,0-.4-.4-.5-.6-.5-.6,0-.7,.3-.7,.5h-.5c0-.4,.3-1,1.2-1s1.1,.7,1.1,1.1v2.4h-.5v-.5Zm-.3-1.1c-.4,0-1.1,.1-1.1,.7s.2,.5,.5,.5,.7-.2,.8-.5c0-.2,.1-.3,.1-.7h-.3Z"/>
      <rect class="uuid-b4013ce2-8259-4b71-ae91-90e2a76441a3" x="24.9" y="40" width=".5" height="5"/>
      <path class="uuid-b4013ce2-8259-4b71-ae91-90e2a76441a3" d="M27.7,43.3c0-1,.4-1.8,1.4-1.8s1.4,.8,1.4,1.8-.4,1.8-1.4,1.8-1.4-.8-1.4-1.8m1.4,1.4c.6,0,.8-.5,.8-1.4s-.3-1.4-.8-1.4-.8,.5-.8,1.4,.3,1.4,.8,1.4"/>
      <path class="uuid-b4013ce2-8259-4b71-ae91-90e2a76441a3" d="M32.9,45h.5v-1.4c0-.9,.4-1.6,1.2-1.6v-.5c-.8,0-1,.5-1.1,.7h0v-.7h-.5v3.4Z"/>
      <path class="uuid-b4013ce2-8259-4b71-ae91-90e2a76441a3" d="M36.5,40h.6v.6h-.6v-.6Zm0,1.5h.5v3.4h-.5v-3.4Z"/>
      <polygon class="uuid-b4013ce2-8259-4b71-ae91-90e2a76441a3" points="39.4 44.6 41.2 42 39.5 42 39.5 41.6 41.8 41.6 41.8 42 40 44.6 41.8 44.6 41.8 45 39.4 45 39.4 44.6"/>
      <path class="uuid-b4013ce2-8259-4b71-ae91-90e2a76441a3" d="M45.8,44.5h0c0,.2-.4,.5-1,.5s-.9-.3-.9-1,1-1.1,1.6-1.1,.2,0,.3,0c0-.2,0-.5,0-.7,0-.4-.4-.5-.6-.5-.5,0-.7,.3-.7,.5h-.5c0-.4,.3-1,1.2-1s1.1,.7,1.1,1.1v2.4h-.5v-.5Zm-.3-1.1c-.4,0-1.1,.1-1.1,.7s.2,.5,.5,.5,.7-.2,.8-.5c0-.2,.1-.3,.1-.7h-.3Z"/>
      <path class="uuid-b4013ce2-8259-4b71-ae91-90e2a76441a3" d="M53.3,43c.4,.2,.8,.4,.8,1s-.5,1-1.3,1-.8-.1-.9-.1v-.4c0,0,.5,.2,.9,.2s.8-.2,.8-.6-.4-.5-.6-.6l-.3-.2c-.3-.2-.8-.4-.8-.9s.4-.9,1.2-.9,.6,0,.8,.1v.5c-.1,0-.5-.2-.8-.2s-.7,.2-.7,.4,.3,.4,.6,.5l.3,.2Z"/>
      <path class="uuid-b4013ce2-8259-4b71-ae91-90e2a76441a3" d="M58.2,44.2h0c0,.3-.3,.9-1.1,.9s-.9-.5-.9-1.1v-2.4h.5v1.9c0,.6,0,1.1,.5,1.1s1-1,1-1.6v-1.4h.5v3.4h-.5v-.8Z"/>
      <path class="uuid-b4013ce2-8259-4b71-ae91-90e2a76441a3" d="M64.6,41.6h.5v.8h0c0-.3,.3-.9,1-.9s.8,.3,.9,.8h0c0-.3,.4-.8,1-.8s.9,.5,.9,1.1v2.4h-.5v-1.9c0-.6,0-1.1-.5-1.1s-.9,1-.9,1.6v1.4h-.5v-1.9c0-.6,0-1.1-.5-1.1s-.9,1-.9,1.6v1.4h-.5v-3.4Z"/>
      <path class="uuid-b4013ce2-8259-4b71-ae91-90e2a76441a3" d="M73.1,44.5h0c0,.2-.4,.5-1,.5s-.9-.3-.9-1,1-1.1,1.6-1.1,.2,0,.3,0c0-.2,0-.5,0-.7,0-.4-.4-.5-.6-.5-.6,0-.7,.3-.7,.5h-.5c0-.4,.3-1,1.2-1s1.1,.7,1.1,1.1v2.4h-.5v-.5Zm-.3-1.1c-.4,0-1.1,.1-1.1,.7s.2,.5,.5,.5,.7-.2,.8-.5c0-.2,.1-.3,.1-.7h-.3Z"/>
      <path class="uuid-b4013ce2-8259-4b71-ae91-90e2a76441a3" d="M76.1,41.6h.5v.7h0c0-.2,.4-.7,1.1-.7v.5c-.8,0-1.2,.6-1.2,1.6v1.4h-.5v-3.4Z"/>
      <path class="uuid-b4013ce2-8259-4b71-ae91-90e2a76441a3" d="M82,45c-.2,0-.4,0-.7,0-1.1,0-1.8-.6-1.8-1.9s.4-1.7,1.4-1.7,1.2,.6,1.2,1.1h-.6c0-.4-.1-.7-.6-.7s-.8,.7-.8,1.2,.2,1.6,1.4,1.6,.4,0,.6,0v.4Z"/>
      <path class="uuid-b4013ce2-8259-4b71-ae91-90e2a76441a3" d="M86,44.5h0c0,.2-.4,.5-1,.5s-.9-.3-.9-1,1-1.1,1.6-1.1,.2,0,.3,0c0-.2,0-.5,0-.7,0-.4-.4-.5-.6-.5-.6,0-.7,.3-.7,.5h-.5c0-.4,.3-1,1.2-1s1.1,.7,1.1,1.1v2.4h-.5v-.5Zm-.3-1.1c-.4,0-1.1,.1-1.1,.7s.2,.5,.5,.5,.7-.2,.8-.5c0-.2,.1-.3,.1-.7h-.3Z"/>
    </g>
  </g>
</svg>