<?xml version="1.0" encoding="UTF-8"?>
<svg id="uuid-15c5ca56-7011-4398-8a10-404917abe19b" data-name="Layer 2" xmlns="http://www.w3.org/2000/svg" width="196.2" height="71.9" viewBox="0 0 196.2 71.9">
  <g id="uuid-729d71ce-a7a6-4381-b1af-02b5fd15bf5d" data-name="Capa 1">
    <g>
      <path d="M135.2,21.2c-2.5,1.9-5.1,4-7.7,6.5-7.8,7.5-13.2,15.7-13.2,20,0,.9,.3,1.6,.8,2.1,.5,.5,1.3,.7,2.2,.7,2.6,0,6.6-1.7,11.2-4.9h0l6.8-24.3v-.2h-.1Z" style="fill: #ce0e2d;"/>
      <path d="M128.6,45.5c1.4-3.4,2.8-6.5,3.6-8.6,1.5-3.8,4-4.6,6.1-2-1-4.3-1.9-9.4-2.9-13.7,6.9-5.1,13-7.5,15.1-5.5,2.8,2.7-2.7,12.6-12.4,22-3.2,3-6.4,5.7-9.4,7.8" style="fill: #006072;"/>
      <path d="M128.6,45.5c1.4-3.4,2.8-6.5,3.6-8.6,1.5-3.8,4-4.6,6.1-2-1-4.3-1.9-9.4-2.9-13.7,6.9-5.1,13-7.5,15.1-5.5,2.8,2.7-2.7,12.6-12.4,22-3.2,3-6.4,5.7-9.4,7.8Z" style="fill: none; stroke: #006072; stroke-width: .2px;"/>
      <path d="M165.7,35.3c1.2,0,2.2,.9,2.2,2s-.9,1.9-2.2,1.9-2.2-.9-2.2-1.9,1-2,2.2-2" style="fill: #1d1d1b;"/>
      <rect x="163.7" y="40.4" width="3.9" height="7.4" style="fill: #1d1d1b;"/>
      <path d="M155.2,38.3h1.4v-3h3.9v3h1.8v2.1h-1.8v3.6c0,.3,0,.7,0,.8,.1,.1,.3,.3,.5,.3s.6,0,1.2,0v2.6h-.9c-.5,0-1.1,0-1.3,0-.8,0-1.4,0-1.8-.1-.4,0-.9-.2-1.1-.4-.2-.2-.5-.6-.6-.9,0-.4-.1-1.1-.1-1.8v-4.1h-1.4v-2.1Z" style="fill: #1d1d1b;"/>
      <path d="M149.7,45.9c-.5,0-1-.2-1.3-.6-.4-.3-.6-.8-.6-1.4h7.5c0-.7,0-1.4-.3-2.1-.2-.7-.5-1.3-1-1.9-.4-.6-1-1.1-1.7-1.4-.8-.3-1.8-.5-2.8-.5s-1.7,.2-2.4,.4c-.7,.3-1.3,.8-1.8,1.2-.4,.4-.8,1-1,1.7-.2,.6-.4,1.3-.4,1.9,0,.9,.3,1.8,.7,2.6,.4,.8,1.1,1.4,2,1.7,.8,.4,1.8,.6,3,.6s2.9-.3,3.8-.9c.9-.6,1.4-1.3,1.6-2.2h-3.7c-.3,.5-.8,.9-1.5,.9m-1.4-5.2c.3-.3,.7-.4,1.3-.4s.9,.2,1.2,.5c.4,.4,.5,.8,.5,1.3h-3.6c0-.5,.2-1,.5-1.3" style="fill: #1d1d1b;"/>
      <path d="M188.9,47.8c.9-3.4,1.9-8,2.3-10.9v-.4c0-.2,0-.3-.1-.3s-.4,0-.7,0h-.5v-.3c1.1,0,1.9-.4,2.6-.7h.1l-1.9,9h0c.7-1,1.5-1.9,2.2-2.6,.8-.8,1.5-1.2,2.1-1.2s.5,0,.8,0l-.3,1s-.1,0-.2,0-.2,0-.3,0h-.4c0,0-.4,0-.5,.1-.2,0-.5,.3-.9,.4-.3,.2-.7,.6-1.1,1,.4,1.2,.9,2.3,1.3,3.2,.2,.5,.5,.8,.7,.8s.2,0,.3,0c.1,0,.4-.1,.5-.2,.1,0,.3-.2,.4-.2l.2,.3c0,0-.4,.2-1,.6-.5,.4-1,.5-1.1,.5s-.2,0-.4-.2c-.1-.2-.3-.4-.4-.5-.7-1.8-1.2-2.9-1.3-3.5-.3,.4-.5,.8-.7,1.1-.1,.4-.3,.8-.4,1.3,0,.4-.1,1-.3,1.5l-1,.3v-.2Z" style="fill: #1d1d1b;"/>
      <path d="M188.1,41.7c0-.1-.1-.3-.4-.4-.2,0-.5-.3-.8-.3-.9,0-1.6,.4-2,1.3-.4,.8-.7,1.8-.7,3s0,.1,0,.1c0,1.1,.5,1.7,1.4,1.7s1.4-.4,2.5-1.2l.2,.4c-.4,.3-.8,.5-1.1,.8-.3,.2-.7,.4-1.1,.6-.4,.2-.9,.2-1.2,.2-1.3,0-2-.8-2-2.3s.1-1.5,.4-2.2c.3-.7,.6-1.3,.9-1.7,.2-.2,.7-.4,1.2-.8,.5-.3,.9-.5,1.1-.5,.2,0,.4-.1,.7-.1,.5,0,1.1,.1,1.6,.4,0,.2-.2,.5-.2,.8,0,.4-.1,.8-.2,1.1h-.4v-.9Z" style="fill: #1d1d1b;"/>
      <path d="M182.2,46.2c-.3,.3-.6,.4-.8,.5,0,0-.3,0-.4,0-.1,0-.3,0-.3-.3,0,0,0,0,0-.2s0-.3,0-.4l1.3-5.4v-.2l-.6,.3c-.4-.2-1-.3-1.5-.3s-.8,.1-1.3,.4c-.2,0-.5,.2-.8,.4-.3,.2-.5,.3-.5,.4-.4,.6-.8,1.4-1.1,2.5-.3,1-.5,1.9-.5,2.6h0c0,.9,.2,1.3,.6,1.3s1.1-.4,1.7-1.1c.7-.6,1.3-1.3,1.9-2.2h0c0,.2-.1,.5-.3,1,0,.5-.1,.9-.2,1.1,0,.3,0,.6,0,.7s0,.3,0,.4c0,0,0,.1,.1,.1h.2c0,0,.4-.1,.9-.4,.4-.2,.9-.6,1.4-1l-.2-.3Zm-3.5-.3c-.6,.6-1.1,.9-1.4,.9s-.4-.2-.4-.5,.2-1.4,.5-2.8h0c.2-.7,.5-1.2,.6-1.6,.2-.4,.4-.6,.7-.7,.1,0,.5-.2,.8-.2s.7,.2,1.3,.4c0,1-.4,1.9-.8,2.5-.4,.7-.9,1.4-1.4,2" style="fill: #1d1d1b;"/>
      <path d="M175.6,40.7c-.2-.3-.4-.4-.7-.4-.6,0-1.3,.4-2.1,1-.8,.5-1.3,1.2-1.7,1.9h0s0-.3,.2-.7c0-.3,.2-.8,.2-1,0-.3,0-.6,0-.7,0-.3-.2-.5-.4-.5s-.4,0-.7,.2c-.3,.1-.6,.4-.9,.6-.3,.2-.7,.4-1,.7v.3c.2,0,.3,0,.6-.3,.2-.1,.4-.3,.5-.4,0,0,.1,0,.2,0,.2,0,.3,.1,.3,.3s0,.4,0,.6c-.2,1.5-.5,3.3-.8,5.2-.4,1.9-.7,3.4-1,4.5h.2c.5,0,1-.2,1.2-.2l.6-4.1c.6,.2,.9,.3,1,.3,.8,0,1.8-.6,2.9-1.5,.3-.3,.7-.7,.9-1.2,.2-.5,.5-1,.6-1.6,.1-.5,.2-1.1,.2-1.7s-.2-1-.3-1.3m-1.6,4.6c-.3,.7-.7,1.2-1,1.5-.2,.3-.7,.4-1.2,.4s-.9-.2-1.3-.4h0c0-.2,.1-.5,.3-1,0-.4,.1-.8,.2-1.1,0-.2,0-.5,.1-.7,.4-.9,.9-1.6,1.5-2.1,.6-.5,1.2-.8,1.6-.8s.6,.3,.6,1.1-.3,1.9-.8,3" style="fill: #1d1d1b;"/>
      <polygon points="128.6 54.3 129.1 54.3 130.1 56.9 130.1 56.9 130.9 54.3 131.4 54.3 130.3 57.5 129.8 57.5 128.6 54.3" style="fill: #1d1d1b;"/>
      <path d="M135,57.1h0c0,.2-.4,.5-1,.5s-.9-.3-.9-.9,1-1,1.5-1,.2,0,.3,0c0-.2,0-.5,0-.6,0-.4-.3-.4-.6-.4-.5,0-.6,.3-.7,.5h-.5c0-.4,.3-.9,1.2-.9s1.1,.6,1.1,1v2.3h-.4v-.4Zm-.3-1c-.3,0-1.1,.1-1.1,.7s.2,.5,.5,.5,.6-.2,.8-.5c0-.2,.1-.3,.1-.7h-.3Z" style="fill: #1d1d1b;"/>
      <rect x="137.9" y="52.9" width=".5" height="4.7" style="fill: #1d1d1b;"/>
      <path d="M140.6,55.9c0-.9,.4-1.7,1.3-1.7s1.3,.8,1.3,1.7-.4,1.7-1.3,1.7-1.3-.7-1.3-1.7m1.3,1.3c.5,0,.8-.5,.8-1.3s-.3-1.3-.8-1.3-.8,.5-.8,1.3,.3,1.3,.8,1.3" style="fill: #1d1d1b;"/>
      <path d="M145.5,57.5h.5v-1.3c0-.9,.4-1.5,1.1-1.5v-.5c-.7,0-1,.5-1.1,.7h0v-.6h-.5v3.2Z" style="fill: #1d1d1b;"/>
      <path d="M149,52.9h.6v.6h-.6v-.6Zm0,1.5h.5v3.2h-.5v-3.2Z" style="fill: #1d1d1b;"/>
      <polygon points="151.7 57.2 153.4 54.7 151.8 54.7 151.8 54.3 153.9 54.3 153.9 54.7 152.2 57.2 154 57.2 154 57.5 151.7 57.5 151.7 57.2" style="fill: #1d1d1b;"/>
      <path d="M157.7,57.1h0c0,.2-.4,.5-1,.5s-.9-.3-.9-.9,1-1,1.5-1,.2,0,.3,0c0-.2,0-.5,0-.6,0-.4-.4-.4-.6-.4-.5,0-.6,.3-.7,.5h-.5c0-.4,.3-.9,1.2-.9s1.1,.6,1.1,1v2.3h-.4v-.4Zm-.3-1c-.3,0-1.1,.1-1.1,.7s.2,.5,.5,.5,.6-.2,.8-.5c0-.2,.1-.3,.1-.7h-.3Z" style="fill: #1d1d1b;"/>
      <path d="M164.8,55.7c.3,.2,.8,.4,.8,.9s-.5,1-1.2,1-.8,0-.9-.1v-.4c0,0,.5,.2,.8,.2s.8-.1,.8-.5-.4-.5-.6-.6l-.3-.2c-.3-.2-.7-.3-.7-.9s.4-.9,1.1-.9,.6,0,.8,.1v.4c-.1,0-.4-.2-.8-.2s-.7,.2-.7,.4,.3,.4,.6,.5l.3,.2Z" style="fill: #1d1d1b;"/>
      <path d="M169.4,56.8h0c0,.3-.3,.8-1,.8s-.8-.5-.8-1v-2.3h.5v1.8c0,.6,0,1.1,.5,1.1s.9-.9,.9-1.5v-1.3h.5v3.2h-.5v-.7Z" style="fill: #1d1d1b;"/>
      <path d="M175.5,54.3h.5v.7h0c0-.3,.3-.8,.9-.8s.8,.3,.8,.7h0c0-.2,.3-.7,.9-.7s.8,.5,.8,1v2.3h-.5v-1.8c0-.6,0-1.1-.5-1.1s-.8,.9-.8,1.5v1.3h-.5v-1.8c0-.6,0-1.1-.5-1.1s-.8,.9-.8,1.5v1.3h-.5v-3.2Z" style="fill: #1d1d1b;"/>
      <path d="M183.5,57.1h0c0,.2-.4,.5-1,.5s-.9-.3-.9-.9,1-1,1.5-1,.2,0,.3,0c0-.2,0-.5,0-.6,0-.4-.4-.4-.6-.4-.5,0-.6,.3-.7,.5h-.5c0-.4,.3-.9,1.2-.9s1.1,.6,1.1,1v2.3h-.4v-.4Zm-.3-1c-.3,0-1.1,.1-1.1,.7s.2,.5,.5,.5,.6-.2,.8-.5c0-.2,.1-.3,.1-.7h-.3Z" style="fill: #1d1d1b;"/>
      <path d="M186.4,54.3h.5v.6h0c0-.2,.3-.7,1.1-.7v.5c-.7,0-1.1,.6-1.1,1.5v1.3h-.5v-3.2Z" style="fill: #1d1d1b;"/>
      <path d="M192,57.5c-.2,0-.4,0-.7,0-1,0-1.7-.6-1.7-1.8s.4-1.6,1.3-1.6,1.1,.5,1.1,1.1h-.6c0-.3-.1-.7-.6-.7s-.8,.6-.8,1.1,.2,1.5,1.3,1.5,.3,0,.5,0v.4Z" style="fill: #1d1d1b;"/>
      <path d="M195.8,57.1h0c0,.2-.4,.5-1,.5s-.9-.3-.9-.9,1-1,1.5-1,.2,0,.3,0c0-.2,0-.5,0-.6,0-.4-.3-.4-.6-.4-.5,0-.6,.3-.7,.5h-.5c0-.4,.3-.9,1.2-.9s1.1,.6,1.1,1v2.3h-.4v-.4Zm-.3-1c-.3,0-1.1,.1-1.1,.7s.2,.5,.5,.5,.6-.2,.8-.5c0-.2,.1-.3,.1-.7h-.3Z" style="fill: #1d1d1b;"/>
      <path d="M142,0l-32.5,36.2s-3.6,4-5.5,5.7c-4.3,3.7-11.6,10.2-27.3,15.7-3.9,1.4-12.6,4.1-17.1,5.3-17.1,4.4-42,7.8-57.5,9-.3,0-.5,0-.8,0-1.9,.2-1.6-.5,0-.6,7-.5,27.3-2.4,48.4-7.1,23.2-5.2,47-14.1,54.6-25.8,0,0,4.7-5.2,5.2-10.7,.4-4.4-3.5-9.8-8-10.5L142,0Z" style="fill: #dddddc;"/>
    </g>
  </g>
</svg>