<?xml version="1.0" encoding="utf-8"?>
<!-- Generator: Adobe Illustrator 26.3.0, SVG Export Plug-In . SVG Version: 6.00 Build 0)  -->
<svg version="1.1" id="Layer_1" xmlns="http://www.w3.org/2000/svg" xmlns:xlink="http://www.w3.org/1999/xlink" x="0px" y="0px"
	 width="110px" height="60px" viewBox="0 0 110 60" style="enable-background:new 0 0 110 60;" xml:space="preserve">
<style type="text/css">
	.st0{fill:#030506;}
	.st1{fill:#FFFFFF;}
	.st2{fill:#CE0E2D;}
	.st3{fill:#006072;}
	.st4{fill:none;stroke:#006072;stroke-width:0.182;}
</style>
<g>
	<g>
		<g>
			<path class="st0" d="M28.5,14.2c-0.2,0.1-0.3,0.1-0.5,0.2c-0.8,0.2-1.5,0.5-2,1.1c-0.7,0.4-1.2,1-1.5,1.7
				c-0.4,0.7-0.7,1.4-0.7,2.2c-0.2,0.8-0.1,1.6,0.1,2.4c0.2,0.5,0.4,1,0.6,1.4c0.5,0.9,1.3,1.6,2.2,2.2c0.5,0.2,1,0.4,1.4,0.6
				c1.1,0.3,2.1,0.3,3.2,0c0.2-0.1,0.3-0.1,0.5-0.2c0.8-0.2,1.5-0.5,2-1.1c0.7-0.4,1.2-1,1.5-1.7c0.4-0.7,0.7-1.4,0.7-2.2
				c0.2-0.8,0.1-1.6-0.1-2.4c-0.2-0.5-0.4-1-0.6-1.4c-0.5-0.9-1.3-1.6-2.2-2.2c-0.5-0.2-1-0.4-1.4-0.6C30.6,14,29.5,14,28.5,14.2
				L28.5,14.2z"/>
		</g>
	</g>
	<g>
		<g>
			<path class="st1" d="M29.7,21.9c7.7,0,7.7-12,0-12C22,9.9,22,21.9,29.7,21.9L29.7,21.9z"/>
		</g>
	</g>
	<g>
		<g>
			<path class="st1" d="M23.9,20.6C22,22.8,20.1,25.1,18,27c-1.8,1.5-4.2,3-5.8,5c-2.1,2.5-2.4,6,0,8.5c2.1,2.1,6.4,2.5,8.5,0
				c1.7-2.1,3.8-3.2,5.8-5c2.2-1.9,4-4.2,5.9-6.3c2.1-2.4,2.4-6.1,0-8.5C30.2,18.4,26,18.2,23.9,20.6L23.9,20.6z"/>
		</g>
	</g>
	<path class="st2" d="M28,9.6c-3.4,2.5-6.9,5.4-10.3,8.7C7.3,28.4,0,39.5,0,45.2c0,1.2,0.3,2.2,1,2.9c0.7,0.7,1.7,1,3,1
		c3.4,0,8.8-2.3,15.1-6.6l0,0l9.1-32.7l0.1-0.3L28,9.6z"/>
	<path class="st3" d="M19,42.3c1.8-4.6,3.7-8.7,4.8-11.5c2-5.1,5.4-6.2,8.2-2.7c-1.4-5.8-2.6-12.6-3.9-18.4
		c9.3-6.9,17.5-10.1,20.3-7.3c3.8,3.7-3.7,17-16.7,29.5C27.5,36,23.1,39.6,19,42.3"/>
	<path class="st4" d="M19,42.3c1.8-4.6,3.7-8.7,4.8-11.5c2-5.1,5.4-6.2,8.2-2.7c-1.4-5.8-2.6-12.6-3.9-18.4
		c9.3-6.9,17.5-10.1,20.3-7.3c3.8,3.7-3.7,17-16.7,29.5C27.5,36,23.1,39.6,19,42.3z"/>
	<path class="st1" d="M68.9,28.6c1.6,0,2.9,1.2,2.9,2.7c0,1.4-1.3,2.6-2.9,2.6c-1.6,0-2.9-1.1-2.9-2.6C66,29.8,67.4,28.6,68.9,28.6"
		/>
	<rect x="66.3" y="35.4" class="st1" width="5.3" height="10"/>
	<path class="st1" d="M54.9,32.6h1.9v-4H62v4h2.5v2.8H62v4.8c0,0.4,0.1,0.9,0.1,1c0.2,0.2,0.4,0.4,0.7,0.4c0.3,0,0.8,0.1,1.6,0.1
		v3.6h-1.2c-0.7,0-1.4,0.1-1.7,0.1c-1,0-1.9-0.1-2.4-0.2c-0.6-0.1-1.2-0.3-1.4-0.5c-0.3-0.3-0.7-0.8-0.8-1.3
		c-0.1-0.6-0.2-1.4-0.2-2.4v-5.5h-1.9L54.9,32.6z"/>
	<path class="st1" d="M47.4,42.8c-0.7,0-1.4-0.3-1.8-0.8c-0.5-0.4-0.8-1.1-0.8-1.9h10.1c0-0.9-0.1-1.9-0.4-2.8
		c-0.2-0.9-0.7-1.8-1.3-2.5c-0.5-0.8-1.4-1.4-2.3-1.9c-1-0.4-2.4-0.7-3.7-0.7c-1.1,0-2.3,0.2-3.3,0.5c-0.9,0.4-1.7,1-2.4,1.6
		c-0.6,0.5-1.1,1.4-1.4,2.2c-0.3,0.8-0.5,1.7-0.5,2.5c0,1.3,0.4,2.5,1,3.6c0.6,1,1.5,1.9,2.7,2.4c1.1,0.5,2.5,0.8,4,0.8
		c2.1,0,3.9-0.4,5.1-1.3c1.1-0.8,1.9-1.8,2.2-3h-5C49,42.3,48.4,42.8,47.4,42.8 M45.5,35.8c0.4-0.4,1-0.6,1.7-0.6
		c0.6,0,1.1,0.2,1.6,0.7c0.5,0.5,0.7,1.1,0.7,1.7h-4.8C44.8,36.8,45.1,36.2,45.5,35.8"/>
	<path class="st1" d="M100.1,45.4c1.1-4.6,2.5-10.8,3.1-14.6v-0.5c0-0.2-0.1-0.4-0.2-0.4c-0.1,0-0.5-0.1-1-0.1h-0.6l0.1-0.4
		c1.3-0.1,2.5-0.5,3.4-0.9l0.2,0.2l-2.6,11.9h0.1c0.9-1.4,2-2.5,3-3.6c1-1,2-1.6,2.8-1.6c0.3,0,0.7,0.1,1.1,0.1l-0.4,1.4
		c0,0-0.2-0.1-0.3-0.1c-0.1,0-0.3-0.1-0.4-0.1h-0.5c-0.1,0-0.5,0.1-0.7,0.2c-0.3,0.1-0.7,0.4-1.1,0.6c-0.4,0.2-1,0.8-1.5,1.3
		c0.5,1.6,1.1,3.1,1.8,4.3c0.3,0.7,0.7,1,1,1c0.1,0,0.2-0.1,0.4-0.1c0.2-0.1,0.5-0.2,0.7-0.2c0.2-0.1,0.4-0.2,0.5-0.3l0.2,0.4
		c-0.1,0-0.5,0.3-1.3,0.8c-0.7,0.5-1.3,0.7-1.4,0.7c-0.1,0-0.3-0.1-0.5-0.3c-0.2-0.2-0.4-0.5-0.5-0.7c-0.9-2.4-1.6-3.9-1.8-4.6
		c-0.4,0.5-0.7,1.1-1,1.5c-0.2,0.5-0.4,1.1-0.5,1.8c-0.1,0.6-0.2,1.3-0.4,2l-1.4,0.4L100.1,45.4z"/>
	<path class="st1" d="M99.1,37.2c0-0.2-0.2-0.4-0.5-0.5c-0.2-0.1-0.7-0.4-1.1-0.4c-1.1,0-2.2,0.5-2.7,1.7c-0.6,1.1-1,2.5-1,4
		c0,0.1,0.1,0.2,0.1,0.2c0,1.5,0.7,2.3,1.9,2.3c0.7,0,1.9-0.5,3.4-1.6l0.2,0.5c-0.5,0.4-1,0.7-1.4,1.1c-0.4,0.3-0.9,0.5-1.4,0.8
		c-0.5,0.2-1.1,0.3-1.6,0.3c-1.7,0-2.7-1.1-2.7-3.1c0-1,0.2-2,0.5-2.9c0.4-1,0.8-1.8,1.3-2.3c0.3-0.3,0.9-0.6,1.6-1
		c0.7-0.4,1.3-0.7,1.4-0.7c0.3-0.1,0.6-0.2,1-0.2c0.7,0,1.4,0.2,2.1,0.5c-0.1,0.2-0.2,0.7-0.3,1c-0.1,0.5-0.2,1.1-0.2,1.5h-0.5V37.2
		z"/>
	<path class="st1" d="M91.1,43.3c-0.4,0.4-0.8,0.6-1,0.7c-0.1,0.1-0.4,0.1-0.5,0.1c-0.2,0-0.4-0.1-0.4-0.4c0,0,0.1-0.1,0.1-0.3
		c0-0.2,0.1-0.4,0.1-0.5l1.7-7.3L91,35.4l-0.7,0.4c-0.6-0.2-1.3-0.4-2.1-0.4c-0.5,0-1.1,0.2-1.7,0.5c-0.2,0.1-0.7,0.3-1,0.6
		c-0.4,0.2-0.6,0.4-0.7,0.5c-0.6,0.8-1.1,1.9-1.5,3.3c-0.4,1.4-0.7,2.5-0.7,3.4v0.1c0,1.2,0.3,1.7,0.8,1.7c0.6,0,1.4-0.5,2.3-1.4
		c0.9-0.8,1.8-1.7,2.5-3h0.1c0,0.2-0.2,0.7-0.4,1.3c-0.1,0.6-0.2,1.1-0.2,1.5c0,0.4-0.1,0.8-0.1,0.9c0,0.1,0.1,0.4,0.1,0.5
		c0,0.1,0.1,0.2,0.2,0.2h0.2c0.1,0,0.6-0.2,1.2-0.5c0.5-0.3,1.3-0.8,1.9-1.4L91.1,43.3z M86.5,42.9c-0.8,0.8-1.5,1.2-1.9,1.2
		c-0.2,0-0.5-0.2-0.5-0.7c0-0.7,0.3-1.9,0.7-3.7v0.1c0.3-1,0.6-1.7,0.8-2.2c0.2-0.5,0.6-0.8,0.9-0.9c0.2-0.1,0.7-0.3,1.1-0.3
		c0.3,0,1,0.2,1.7,0.5c-0.1,1.4-0.5,2.5-1,3.4C87.9,41.1,87.2,42.1,86.5,42.9"/>
	<path class="st1" d="M82.3,35.9c-0.2-0.4-0.5-0.5-0.9-0.5c-0.8,0-1.8,0.5-2.8,1.3c-1,0.7-1.7,1.6-2.3,2.5h-0.1c0,0,0.1-0.4,0.2-0.9
		c0.1-0.4,0.2-1,0.3-1.4c0-0.4,0.1-0.8,0.1-0.9c0-0.4-0.2-0.7-0.5-0.7c-0.3,0-0.5,0.1-0.9,0.2c-0.4,0.2-0.8,0.5-1.2,0.8
		c-0.4,0.3-1,0.6-1.3,0.9l0.2,0.4c0.1,0,0.2-0.1,0.6-0.4c0.2-0.2,0.6-0.4,0.7-0.5c0.1-0.1,0.2-0.1,0.3-0.1c0.2,0,0.4,0.2,0.4,0.4
		c0,0.3-0.1,0.6-0.1,0.8c-0.2,2-0.7,4.5-1.1,7.1c-0.5,2.6-1,4.6-1.4,6l0.2,0.1c0.7-0.2,1.4-0.4,1.6-0.4l0.8-5.5
		c0.8,0.2,1.3,0.4,1.4,0.4c1-0.1,2.4-0.8,3.9-2c0.4-0.4,0.9-1,1.2-1.6c0.3-0.7,0.7-1.4,0.8-2.2c0.2-0.7,0.3-1.5,0.3-2.2
		C82.7,36.9,82.4,36.3,82.3,35.9 M80.1,42c-0.4,0.9-1,1.6-1.4,2c-0.3,0.4-0.9,0.5-1.6,0.5c-0.7,0-1.3-0.3-1.7-0.5h-0.1
		c0.1-0.2,0.2-0.7,0.4-1.4c0.1-0.6,0.2-1.1,0.2-1.4c0-0.2,0.1-0.7,0.2-0.9c0.5-1.1,1.3-2.1,2-2.8c0.8-0.7,1.6-1,2.2-1
		c0.5,0,0.8,0.4,0.8,1.4C81.1,39,80.7,40.5,80.1,42"/>
	<polygon class="st1" points="19.1,54.1 19.8,54.1 21.1,57.6 21.1,57.6 22.2,54.1 22.9,54.1 21.4,58.5 20.8,58.5 	"/>
	<path class="st1" d="M27.7,57.9L27.7,57.9c-0.1,0.2-0.6,0.7-1.4,0.7c-0.7,0-1.2-0.4-1.2-1.2c0-1,1.3-1.4,2.1-1.4c0.2,0,0.3,0,0.4,0
		c0-0.2,0-0.7,0-0.8c-0.1-0.5-0.5-0.6-0.8-0.6c-0.7,0-0.8,0.4-0.9,0.7h-0.7c0-0.5,0.4-1.2,1.6-1.2c1.4,0,1.5,0.8,1.5,1.4v3.1h-0.6
		V57.9z M27.3,56.5c-0.5,0-1.4,0.2-1.4,0.9c0,0.4,0.3,0.6,0.6,0.6c0.4,0,0.8-0.3,1-0.7c0.1-0.3,0.2-0.4,0.2-0.9H27.3z"/>
	<rect x="31.6" y="52.2" class="st1" width="0.6" height="6.3"/>
	<path class="st1" d="M35.3,56.3c0-1.3,0.5-2.3,1.8-2.3c1.3,0,1.8,1,1.8,2.3c0,1.3-0.5,2.3-1.8,2.3C35.8,58.6,35.3,57.6,35.3,56.3
		 M37.1,58.1c0.7,0,1.1-0.7,1.1-1.8c0-1.1-0.4-1.8-1.1-1.8c-0.7,0-1.1,0.7-1.1,1.8C36,57.4,36.4,58.1,37.1,58.1"/>
	<path class="st1" d="M41.8,58.5h0.6v-1.8c0-1.2,0.5-2,1.5-2V54c-1,0-1.3,0.6-1.5,0.9h0v-0.8h-0.6V58.5z"/>
	<path class="st1" d="M46.5,52.2h0.8V53h-0.8V52.2z M46.6,54.1h0.6v4.3h-0.6V54.1z"/>
	<polygon class="st1" points="50.1,58 52.4,54.7 50.3,54.7 50.3,54.1 53.1,54.1 53.1,54.7 50.9,58 53.2,58 53.2,58.5 50.1,58.5 	"/>
	<path class="st1" d="M58.3,57.9L58.3,57.9c-0.1,0.2-0.6,0.7-1.4,0.7c-0.7,0-1.2-0.4-1.2-1.2c0-1,1.3-1.4,2.1-1.4c0.2,0,0.3,0,0.4,0
		c0-0.2,0-0.7,0-0.8c-0.1-0.5-0.5-0.6-0.8-0.6c-0.7,0-0.8,0.4-0.9,0.7h-0.7c0-0.5,0.4-1.2,1.6-1.2c1.4,0,1.5,0.8,1.5,1.4v3.1h-0.6
		V57.9z M57.9,56.5c-0.5,0-1.4,0.2-1.4,0.9c0,0.4,0.3,0.6,0.6,0.6c0.4,0,0.8-0.3,1-0.7c0.1-0.3,0.2-0.4,0.2-0.9H57.9z"/>
	<path class="st1" d="M67.7,56c0.5,0.2,1,0.5,1,1.2c0,0.9-0.6,1.3-1.6,1.3c-0.6,0-1-0.1-1.2-0.2v-0.6c0.1,0,0.6,0.2,1.1,0.2
		c0.6,0,1.1-0.2,1.1-0.7c0-0.4-0.5-0.6-0.8-0.8L67,56.4c-0.4-0.2-1-0.5-1-1.2c0-0.7,0.5-1.2,1.5-1.2c0.5,0,0.8,0.1,1,0.1v0.6
		c-0.1-0.1-0.6-0.2-1-0.2c-0.5,0-0.9,0.3-0.9,0.6c0,0.4,0.4,0.5,0.8,0.7L67.7,56z"/>
	<path class="st1" d="M74,57.5L74,57.5c-0.1,0.4-0.4,1.1-1.4,1.1c-0.8,0-1.1-0.6-1.1-1.3v-3.1h0.6v2.4c0,0.8,0,1.4,0.6,1.4
		c0.8,0,1.2-1.3,1.2-2v-1.8h0.6v4.3H74V57.5z"/>
	<path class="st1" d="M82.1,54.1h0.6v1h0c0.1-0.4,0.3-1.1,1.2-1.1c0.7,0,1.1,0.4,1.1,1h0c0.1-0.3,0.5-1,1.2-1c0.7,0,1.1,0.6,1.1,1.3
		v3.1h-0.6v-2.4c0-0.8,0-1.4-0.6-1.4c-0.7,0-1.1,1.3-1.1,2v1.8h-0.6v-2.4c0-0.8,0-1.4-0.6-1.4c-0.7,0-1.1,1.3-1.1,2v1.8h-0.6V54.1z"
		/>
	<path class="st1" d="M92.9,57.9L92.9,57.9c-0.1,0.2-0.6,0.7-1.4,0.7c-0.7,0-1.2-0.4-1.2-1.2c0-1,1.3-1.4,2.1-1.4c0.2,0,0.3,0,0.4,0
		c0-0.2,0-0.7,0-0.8c-0.1-0.5-0.5-0.6-0.8-0.6c-0.7,0-0.8,0.4-0.9,0.7h-0.7c0-0.5,0.4-1.2,1.6-1.2c1.4,0,1.5,0.8,1.5,1.4v3.1h-0.6
		V57.9z M92.5,56.5c-0.5,0-1.4,0.2-1.4,0.9c0,0.4,0.3,0.6,0.6,0.6c0.4,0,0.8-0.3,1-0.7c0.1-0.3,0.2-0.4,0.2-0.9H92.5z"/>
	<path class="st1" d="M96.8,54.1h0.6V55h0c0.1-0.3,0.5-0.9,1.5-0.9v0.7c-1,0-1.5,0.8-1.5,2v1.8h-0.6V54.1z"/>
	<path class="st1" d="M104.3,58.5c-0.3,0.1-0.5,0.1-0.9,0.1c-1.4,0-2.2-0.8-2.2-2.4c0-1.3,0.5-2.2,1.8-2.2c1.2,0,1.5,0.7,1.5,1.4
		h-0.7c0-0.5-0.2-0.9-0.8-0.9c-0.8,0-1,0.9-1,1.5c0,0.8,0.3,2,1.7,2c0.2,0,0.5,0,0.7-0.1V58.5z"/>
	<path class="st1" d="M109.4,57.9L109.4,57.9c-0.1,0.2-0.6,0.7-1.4,0.7c-0.7,0-1.2-0.4-1.2-1.2c0-1,1.3-1.4,2.1-1.4
		c0.2,0,0.3,0,0.4,0c0-0.2,0-0.7,0-0.8c-0.1-0.5-0.5-0.6-0.8-0.6c-0.7,0-0.8,0.4-0.9,0.7H107c0-0.5,0.4-1.2,1.6-1.2
		c1.3,0,1.5,0.8,1.5,1.4v3.1h-0.6V57.9z M109,56.5c-0.5,0-1.4,0.2-1.4,0.9c0,0.4,0.3,0.6,0.6,0.6c0.4,0,0.8-0.3,1-0.7
		c0.1-0.3,0.2-0.4,0.2-0.9H109z"/>
</g>
</svg>
