<?xml version="1.0" encoding="utf-8"?>
<svg version="1.1" xmlns:xlink="http://www.w3.org/1999/xlink" x="0px" y="0px"
	 viewBox="0 0 80 80" style="enable-background:new 0 0 80 80;" xml:space="preserve">
<style type="text/css">
	.st0{fill:#CE0E2D;}
	.st1{fill:#006072;}
	.st2{fill:none;stroke:#006072;stroke-width:0.182;}
</style>
<g>
	<path class="st0" d="M43.5,20.5c-4.4,3.2-8.9,7-13.3,11.3C16.7,44.8,7.3,59.1,7.3,66.4c0,1.6,0.4,2.9,1.3,3.7
		c0.9,0.9,2.2,1.3,3.9,1.3c4.5,0,11.4-3,19.5-8.5l0,0l11.7-42.2l0.1-0.4L43.5,20.5z"/>
	<path class="st1" d="M31.9,62.8c2.4-5.9,4.8-11.3,6.2-14.9c2.5-6.6,7-8,10.6-3.4c-1.8-7.5-3.4-16.3-5.1-23.8
		c12-8.9,22.6-13,26.3-9.5c4.9,4.7-4.7,22-21.6,38.2C42.8,54.6,37.1,59.2,31.9,62.8"/>
	<path class="st2" d="M31.9,62.8c2.4-5.9,4.8-11.3,6.2-14.9c2.5-6.6,7-8,10.6-3.4c-1.8-7.5-3.4-16.3-5.1-23.8
		c12-8.9,22.6-13,26.3-9.5c4.9,4.7-4.7,22-21.6,38.2C42.8,54.6,37.1,59.2,31.9,62.8z"/>
</g>
</svg>
